<svg width="123" height="44" viewBox="0 0 123 44" fill="none" xmlns="http://www.w3.org/2000/svg">
<path d="M44.0007 11.0923L33.0285 16.7888C23.8333 21.5627 19.2357 23.9497 19.1394 27.034C19.043 30.1183 23.4855 32.6954 32.3706 37.8497L42.9727 44C26.7336 34.572 27.1813 19.8365 44.0007 11.0923Z" fill="#E5ABF3"/>
<path d="M0 32.9185L10.7906 26.9932C19.8338 22.0274 24.3553 19.5446 24.3553 16.4592C24.3553 13.3739 19.8338 10.8911 10.7906 5.92533L2.62041e-06 0C16.5282 9.08342 16.5408 23.8235 0 32.9185Z" fill="#0C9347"/>
<path d="M53.2108 33.2044C51.705 33.2044 50.3752 32.9502 49.2215 32.4418C48.0677 31.9138 47.1584 31.1706 46.4935 30.2124C45.8286 29.2346 45.4864 28.0515 45.4668 26.6631H49.4268C49.4659 27.6213 49.8081 28.4329 50.4535 29.0978C51.1184 29.7431 52.0277 30.0658 53.1815 30.0658C54.1788 30.0658 54.9708 29.8311 55.5575 29.3618C56.1441 28.8729 56.4375 28.2275 56.4375 27.4258C56.4375 26.5849 56.1735 25.9298 55.6455 25.4604C55.137 24.9911 54.4526 24.6098 53.5921 24.3164C52.7317 24.0231 51.8126 23.7102 50.8348 23.3778C49.2508 22.8302 48.0384 22.1262 47.1975 21.2658C46.3761 20.4053 45.9655 19.2613 45.9655 17.8338C45.9459 16.6213 46.2295 15.5849 46.8161 14.7244C47.4224 13.8444 48.2437 13.1698 49.2801 12.7004C50.3166 12.2115 51.5095 11.9671 52.8588 11.9671C54.2277 11.9671 55.4304 12.2115 56.4668 12.7004C57.5228 13.1893 58.3441 13.8738 58.9308 14.7538C59.537 15.6338 59.8597 16.68 59.8988 17.8924H55.8801C55.8606 17.1689 55.577 16.5333 55.0295 15.9858C54.5015 15.4186 53.7584 15.1351 52.8001 15.1351C51.9788 15.1155 51.2846 15.3209 50.7175 15.7511C50.1699 16.1618 49.8961 16.768 49.8961 17.5698C49.8961 18.2542 50.1112 18.8018 50.5415 19.2124C50.9717 19.6035 51.5584 19.936 52.3015 20.2098C53.0446 20.4835 53.8952 20.7769 54.8535 21.0898C55.8704 21.4418 56.7992 21.8524 57.6401 22.3218C58.481 22.7911 59.1557 23.4169 59.6641 24.1991C60.1726 24.9618 60.4268 25.9493 60.4268 27.1618C60.4268 28.2373 60.153 29.2346 59.6055 30.1538C59.0579 31.0729 58.2464 31.816 57.1708 32.3831C56.0952 32.9306 54.7752 33.2044 53.2108 33.2044Z" fill="#0E0E0E"/>
<path d="M70.5961 33.2044C69.1881 33.2044 67.917 32.8818 66.7827 32.2364C65.6681 31.5911 64.7783 30.7013 64.1134 29.5671C63.4681 28.4133 63.1454 27.0835 63.1454 25.5778C63.1454 24.072 63.4778 22.752 64.1427 21.6178C64.8076 20.464 65.6974 19.5644 66.8121 18.9191C67.9463 18.2738 69.2174 17.9511 70.6254 17.9511C72.0138 17.9511 73.2654 18.2738 74.3801 18.9191C75.5143 19.5644 76.4041 20.464 77.0494 21.6178C77.7143 22.752 78.0467 24.072 78.0467 25.5778C78.0467 27.0835 77.7143 28.4133 77.0494 29.5671C76.4041 30.7013 75.5143 31.5911 74.3801 32.2364C73.2458 32.8818 71.9845 33.2044 70.5961 33.2044ZM70.5961 29.9484C71.5738 29.9484 72.4245 29.5866 73.1481 28.8631C73.8716 28.12 74.2334 27.0249 74.2334 25.5778C74.2334 24.1306 73.8716 23.0453 73.1481 22.3218C72.4245 21.5786 71.5836 21.2071 70.6254 21.2071C69.6281 21.2071 68.7676 21.5786 68.0441 22.3218C67.3401 23.0453 66.9881 24.1306 66.9881 25.5778C66.9881 27.0249 67.3401 28.12 68.0441 28.8631C68.7676 29.5866 69.6183 29.9484 70.5961 29.9484Z" fill="#0E0E0E"/>
<path d="M82.0785 32.8524V21.4418H80.0838V18.3031H82.0785V16.6018C82.0785 14.8418 82.5185 13.5902 83.3985 12.8471C84.298 12.104 85.5105 11.7324 87.0358 11.7324H88.6491V14.9298H87.6225C86.9771 14.9298 86.5176 15.0569 86.2438 15.3111C85.97 15.5653 85.8331 15.9955 85.8331 16.6018V18.3031H88.9718V21.4418H85.8331V32.8524H82.0785Z" fill="#0E0E0E"/>
<path d="M96.3885 33.2044C95.137 33.2044 94.1103 33.0089 93.3085 32.6178C92.5068 32.2071 91.9103 31.6693 91.5192 31.0044C91.1281 30.3395 90.9325 29.6062 90.9325 28.8044C90.9325 27.4551 91.4605 26.36 92.5165 25.5191C93.5725 24.6782 95.1565 24.2578 97.2685 24.2578H100.965V23.9058C100.965 22.9084 100.681 22.1751 100.114 21.7058C99.5468 21.2364 98.8428 21.0018 98.0019 21.0018C97.2392 21.0018 96.5743 21.1875 96.0072 21.5591C95.4401 21.9111 95.0881 22.4391 94.9512 23.1431H91.2845C91.3823 22.0871 91.7343 21.168 92.3405 20.3858C92.9663 19.6035 93.7681 19.0071 94.7459 18.5964C95.7237 18.1662 96.8188 17.9511 98.0312 17.9511C100.104 17.9511 101.737 18.4693 102.93 19.5058C104.123 20.5422 104.719 22.0089 104.719 23.9058V32.8524H101.522L101.17 30.5058C100.74 31.288 100.133 31.9333 99.3512 32.4418C98.5885 32.9502 97.601 33.2044 96.3885 33.2044ZM97.2392 30.2711C98.3148 30.2711 99.1459 29.9191 99.7325 29.2151C100.339 28.5111 100.72 27.6409 100.877 26.6044H97.6792C96.6819 26.6044 95.9681 26.7902 95.5379 27.1618C95.1077 27.5138 94.8925 27.9538 94.8925 28.4818C94.8925 29.0489 95.1077 29.4889 95.5379 29.8018C95.9681 30.1146 96.5352 30.2711 97.2392 30.2711Z" fill="#0E0E0E"/>
<path d="M106.924 32.8524L112.204 25.5778L106.924 18.3031H110.942L114.638 23.4658L118.305 18.3031H122.353L117.044 25.5778L122.353 32.8524H118.305L114.638 27.6898L110.942 32.8524H106.924Z" fill="#0E0E0E"/>
<path d="M53.2108 33.2044C51.705 33.2044 50.3752 32.9502 49.2215 32.4418C48.0677 31.9138 47.1584 31.1706 46.4935 30.2124C45.8286 29.2346 45.4864 28.0515 45.4668 26.6631H49.4268C49.4659 27.6213 49.8081 28.4329 50.4535 29.0978C51.1184 29.7431 52.0277 30.0658 53.1815 30.0658C54.1788 30.0658 54.9708 29.8311 55.5575 29.3618C56.1441 28.8729 56.4375 28.2275 56.4375 27.4258C56.4375 26.5849 56.1735 25.9298 55.6455 25.4604C55.137 24.9911 54.4526 24.6098 53.5921 24.3164C52.7317 24.0231 51.8126 23.7102 50.8348 23.3778C49.2508 22.8302 48.0384 22.1262 47.1975 21.2658C46.3761 20.4053 45.9655 19.2613 45.9655 17.8338C45.9459 16.6213 46.2295 15.5849 46.8161 14.7244C47.4224 13.8444 48.2437 13.1698 49.2801 12.7004C50.3166 12.2115 51.5095 11.9671 52.8588 11.9671C54.2277 11.9671 55.4304 12.2115 56.4668 12.7004C57.5228 13.1893 58.3441 13.8738 58.9308 14.7538C59.537 15.6338 59.8597 16.68 59.8988 17.8924H55.8801C55.8606 17.1689 55.577 16.5333 55.0295 15.9858C54.5015 15.4186 53.7584 15.1351 52.8001 15.1351C51.9788 15.1155 51.2846 15.3209 50.7175 15.7511C50.1699 16.1618 49.8961 16.768 49.8961 17.5698C49.8961 18.2542 50.1112 18.8018 50.5415 19.2124C50.9717 19.6035 51.5584 19.936 52.3015 20.2098C53.0446 20.4835 53.8952 20.7769 54.8535 21.0898C55.8704 21.4418 56.7992 21.8524 57.6401 22.3218C58.481 22.7911 59.1557 23.4169 59.6641 24.1991C60.1726 24.9618 60.4268 25.9493 60.4268 27.1618C60.4268 28.2373 60.153 29.2346 59.6055 30.1538C59.0579 31.0729 58.2464 31.816 57.1708 32.3831C56.0952 32.9306 54.7752 33.2044 53.2108 33.2044Z" stroke="#0E0E0E" stroke-width="0.0502871"/>
<path d="M70.5961 33.2044C69.1881 33.2044 67.917 32.8818 66.7827 32.2364C65.6681 31.5911 64.7783 30.7013 64.1134 29.5671C63.4681 28.4133 63.1454 27.0835 63.1454 25.5778C63.1454 24.072 63.4778 22.752 64.1427 21.6178C64.8076 20.464 65.6974 19.5644 66.8121 18.9191C67.9463 18.2738 69.2174 17.9511 70.6254 17.9511C72.0138 17.9511 73.2654 18.2738 74.3801 18.9191C75.5143 19.5644 76.4041 20.464 77.0494 21.6178C77.7143 22.752 78.0467 24.072 78.0467 25.5778C78.0467 27.0835 77.7143 28.4133 77.0494 29.5671C76.4041 30.7013 75.5143 31.5911 74.3801 32.2364C73.2458 32.8818 71.9845 33.2044 70.5961 33.2044ZM70.5961 29.9484C71.5738 29.9484 72.4245 29.5866 73.1481 28.8631C73.8716 28.12 74.2334 27.0249 74.2334 25.5778C74.2334 24.1306 73.8716 23.0453 73.1481 22.3218C72.4245 21.5786 71.5836 21.2071 70.6254 21.2071C69.6281 21.2071 68.7676 21.5786 68.0441 22.3218C67.3401 23.0453 66.9881 24.1306 66.9881 25.5778C66.9881 27.0249 67.3401 28.12 68.0441 28.8631C68.7676 29.5866 69.6183 29.9484 70.5961 29.9484Z" stroke="#0E0E0E" stroke-width="0.0502871"/>
<path d="M82.0785 32.8524V21.4418H80.0838V18.3031H82.0785V16.6018C82.0785 14.8418 82.5185 13.5902 83.3985 12.8471C84.298 12.104 85.5105 11.7324 87.0358 11.7324H88.6491V14.9298H87.6225C86.9771 14.9298 86.5176 15.0569 86.2438 15.3111C85.97 15.5653 85.8331 15.9955 85.8331 16.6018V18.3031H88.9718V21.4418H85.8331V32.8524H82.0785Z" stroke="#0E0E0E" stroke-width="0.0502871"/>
<path d="M96.3885 33.2044C95.137 33.2044 94.1103 33.0089 93.3085 32.6178C92.5068 32.2071 91.9103 31.6693 91.5192 31.0044C91.1281 30.3395 90.9325 29.6062 90.9325 28.8044C90.9325 27.4551 91.4605 26.36 92.5165 25.5191C93.5725 24.6782 95.1565 24.2578 97.2685 24.2578H100.965V23.9058C100.965 22.9084 100.681 22.1751 100.114 21.7058C99.5468 21.2364 98.8428 21.0018 98.0019 21.0018C97.2392 21.0018 96.5743 21.1875 96.0072 21.5591C95.4401 21.9111 95.0881 22.4391 94.9512 23.1431H91.2845C91.3823 22.0871 91.7343 21.168 92.3405 20.3858C92.9663 19.6035 93.7681 19.0071 94.7459 18.5964C95.7237 18.1662 96.8188 17.9511 98.0312 17.9511C100.104 17.9511 101.737 18.4693 102.93 19.5058C104.123 20.5422 104.719 22.0089 104.719 23.9058V32.8524H101.522L101.17 30.5058C100.74 31.288 100.133 31.9333 99.3512 32.4418C98.5885 32.9502 97.601 33.2044 96.3885 33.2044ZM97.2392 30.2711C98.3148 30.2711 99.1459 29.9191 99.7325 29.2151C100.339 28.5111 100.72 27.6409 100.877 26.6044H97.6792C96.6819 26.6044 95.9681 26.7902 95.5379 27.1618C95.1077 27.5138 94.8925 27.9538 94.8925 28.4818C94.8925 29.0489 95.1077 29.4889 95.5379 29.8018C95.9681 30.1146 96.5352 30.2711 97.2392 30.2711Z" stroke="#0E0E0E" stroke-width="0.0502871"/>
<path d="M106.924 32.8524L112.204 25.5778L106.924 18.3031H110.942L114.638 23.4658L118.305 18.3031H122.353L117.044 25.5778L122.353 32.8524H118.305L114.638 27.6898L110.942 32.8524H106.924Z" stroke="#0E0E0E" stroke-width="0.0502871"/>
</svg>
